<?xml version="1.0" encoding="UTF-8"?>
<svg id="Laag_1" data-name="Laag 1" xmlns="http://www.w3.org/2000/svg" viewBox="0 0 47.93 49.24">
  <defs>
    <style>
      .cls-1 {
        opacity: .2;
      }

      .cls-2 {
        fill: #49abd7;
      }

      .cls-2, .cls-3, .cls-4, .cls-5, .cls-6 {
        stroke-width: 0px;
      }

      .cls-3 {
        fill: #3d3d3b;
      }

      .cls-4 {
        fill: #2072b9;
      }

      .cls-5 {
        fill: #e20e18;
      }

      .cls-6 {
        fill: #fff;
      }
    </style>
  </defs>
  <rect class="cls-2" x="8" y="7.91" width="31.69" height="32.01"/>
  <g class="cls-1">
    <g>
      <path class="cls-3" d="M22.61,10.78c.69-.69,1.82-.69,2.52,0l6.35,6.35h15.02c-.15-.4-.27-.81-.44-1.2-1.25-2.92-2.97-5.47-5.15-7.63-2.19-2.16-4.73-3.87-7.63-5.12-2.9-1.25-6-1.88-9.31-1.88s-6.42.63-9.34,1.88c-2.92,1.25-5.47,2.96-7.63,5.12s-3.87,4.71-5.12,7.63c-.17.39-.3.8-.44,1.2h14.83l6.35-6.35Z"/>
      <path class="cls-3" d="M28.87,38.53c0,.98-.8,1.78-1.78,1.78h-6.25c-.98,0-1.78-.8-1.78-1.78v-5.22H1.41c.15.42.29.85.47,1.26,1.25,2.9,2.96,5.45,5.12,7.63,2.16,2.19,4.71,3.91,7.63,5.15,2.92,1.25,6.04,1.88,9.34,1.88s6.4-.63,9.31-1.88c2.9-1.25,5.44-2.97,7.63-5.15,2.19-2.19,3.9-4.73,5.15-7.63.18-.41.32-.84.47-1.26h-17.65v5.22Z"/>
      <path class="cls-3" d="M19.07,30.91c0-1.59-1.92-2.38-3.04-1.26-.69.69-1.82.69-2.52,0l-3.63-3.63c-.69-.69-.69-1.82,0-2.52l6.38-6.38H1.43c-.94,2.57-1.43,5.28-1.43,8.14s.49,5.51,1.41,8.04h17.66v-2.4Z"/>
      <path class="cls-3" d="M46.5,17.13h-15.02l6.38,6.38c.7.69.7,1.82,0,2.52l-3.76,3.76c-.67.67-1.66.58-2.33-.08-1.07-1.05-2.88-.29-2.88,1.21v2.4h17.65c.92-2.54,1.41-5.21,1.41-8.04s-.5-5.57-1.43-8.14Z"/>
    </g>
  </g>
  <g>
    <path class="cls-5" d="M22.61,9.48c.69-.69,1.82-.69,2.52,0l6.35,6.35h15.02c-.15-.4-.27-.81-.44-1.2-1.25-2.92-2.97-5.47-5.15-7.63-2.19-2.16-4.73-3.87-7.63-5.12-2.9-1.25-6-1.88-9.31-1.88s-6.42.63-9.34,1.88c-2.92,1.25-5.47,2.96-7.63,5.12s-3.87,4.71-5.12,7.63c-.17.39-.3.8-.44,1.2h14.83l6.35-6.35Z"/>
    <path class="cls-4" d="M28.87,37.23c0,.98-.8,1.78-1.78,1.78h-6.25c-.98,0-1.78-.8-1.78-1.78v-5.22H1.41c.15.42.29.85.47,1.26,1.25,2.9,2.96,5.45,5.12,7.63,2.16,2.19,4.71,3.91,7.63,5.15,2.92,1.25,6.04,1.88,9.34,1.88s6.4-.63,9.31-1.88c2.9-1.25,5.44-2.97,7.63-5.15,2.19-2.19,3.9-4.73,5.15-7.63.18-.41.32-.84.47-1.26h-17.65v5.22Z"/>
    <path class="cls-6" d="M19.07,29.61c0-1.59-1.92-2.38-3.04-1.26-.69.69-1.82.69-2.52,0l-3.63-3.63c-.69-.69-.69-1.82,0-2.52l6.38-6.38H1.43c-.94,2.57-1.43,5.28-1.43,8.14s.49,5.51,1.41,8.04h17.66v-2.4Z"/>
    <path class="cls-6" d="M46.5,15.83h-15.02l6.38,6.38c.7.69.7,1.82,0,2.52l-3.76,3.76c-.67.67-1.66.58-2.33-.08-1.07-1.05-2.88-.29-2.88,1.21v2.4h17.65c.92-2.54,1.41-5.21,1.41-8.04s-.5-5.57-1.43-8.14Z"/>
  </g>
</svg>